<?xml version="1.0" encoding="UTF-8" standalone="no"?>
<!DOCTYPE svg PUBLIC "-//W3C//DTD SVG 1.1//EN"
 "http://www.w3.org/Graphics/SVG/1.1/DTD/svg11.dtd">
<!-- Generated by graphviz version 2.40.1 (20161225.0304)
 -->
<!-- Title: dependencies Pages: 1 -->
<svg width="2390pt" height="284pt"
 viewBox="0.00 0.00 2390.00 284.00" xmlns="http://www.w3.org/2000/svg" xmlns:xlink="http://www.w3.org/1999/xlink">
<g id="graph0" class="graph" transform="scale(1 1) rotate(0) translate(4 280)">
<title>dependencies</title>
<polygon fill="#ffffff" stroke="transparent" points="-4,4 -4,-280 2386,-280 2386,4 -4,4"/>
<text text-anchor="start" x="1170.0091" y="-42.4" font-family="sans-serif" font-weight="bold" font-size="14.00" fill="#000000">Legend</text>
<polygon fill="#ffffb3" stroke="transparent" points="957,-10 957,-30 977,-30 977,-10 957,-10"/>
<text text-anchor="start" x="980.629" y="-15.4" font-family="sans-serif" font-size="14.00" fill="#000000"> &#160;Declarations</text>
<polygon fill="#8dd3c7" stroke="transparent" points="1070,-10 1070,-30 1090,-30 1090,-10 1070,-10"/>
<text text-anchor="start" x="1093.7251" y="-15.4" font-family="sans-serif" font-size="14.00" fill="#000000"> &#160;Module</text>
<polygon fill="#80b1d3" stroke="transparent" points="1156,-10 1156,-30 1176,-30 1176,-10 1156,-10"/>
<text text-anchor="start" x="1179.7812" y="-15.4" font-family="sans-serif" font-size="14.00" fill="#000000"> &#160;Bootstrap</text>
<polygon fill="#fdb462" stroke="transparent" points="1253,-10 1253,-30 1273,-30 1273,-10 1253,-10"/>
<text text-anchor="start" x="1276.6732" y="-15.4" font-family="sans-serif" font-size="14.00" fill="#000000"> &#160;Providers</text>
<polygon fill="#fb8072" stroke="transparent" points="1349,-10 1349,-30 1369,-30 1369,-10 1349,-10"/>
<text text-anchor="start" x="1372.7258" y="-15.4" font-family="sans-serif" font-size="14.00" fill="#000000"> &#160;Exports</text>
<g id="clust1" class="cluster">
<title>cluster_AppModule</title>
<polygon fill="none" stroke="#000000" stroke-dasharray="1,5" points="8,-70 8,-268 1378,-268 1378,-70 8,-70"/>
</g>
<g id="clust2" class="cluster">
<title>cluster_AppModule_declarations</title>
<polygon fill="none" stroke="#000000" points="384,-78 384,-130 1370,-130 1370,-78 384,-78"/>
</g>
<g id="clust14" class="cluster">
<title>cluster_AppModule_bootstrap</title>
<polygon fill="none" stroke="#000000" points="697,-208 697,-260 785,-260 785,-208 697,-208"/>
</g>
<g id="clust15" class="cluster">
<title>cluster_AppModule_providers</title>
<polygon fill="none" stroke="#000000" points="16,-78 16,-130 376,-130 376,-78 16,-78"/>
</g>
<g id="clust16" class="cluster">
<title>cluster_DetailRecipePageModule</title>
<polygon fill="none" stroke="#000000" stroke-dasharray="1,5" points="1386,-143 1386,-195 1562,-195 1562,-143 1386,-143"/>
</g>
<g id="clust23" class="cluster">
<title>cluster_EditRecipePageModule</title>
<polygon fill="none" stroke="#000000" stroke-dasharray="1,5" points="1570,-143 1570,-195 1734,-195 1734,-143 1570,-143"/>
</g>
<g id="clust30" class="cluster">
<title>cluster_RecipesPageModule</title>
<polygon fill="none" stroke="#000000" stroke-dasharray="1,5" points="1742,-143 1742,-195 1890,-195 1890,-143 1742,-143"/>
</g>
<g id="clust37" class="cluster">
<title>cluster_ShoppingListPageModule</title>
<polygon fill="none" stroke="#000000" stroke-dasharray="1,5" points="1898,-143 1898,-195 2076,-195 2076,-143 1898,-143"/>
</g>
<g id="clust44" class="cluster">
<title>cluster_SigninPageModule</title>
<polygon fill="none" stroke="#000000" stroke-dasharray="1,5" points="2084,-143 2084,-195 2224,-195 2224,-143 2084,-143"/>
</g>
<g id="clust51" class="cluster">
<title>cluster_SignupPageModule</title>
<polygon fill="none" stroke="#000000" stroke-dasharray="1,5" points="2232,-143 2232,-195 2374,-195 2374,-143 2232,-143"/>
</g>
<!-- DBOptionsPage -->
<g id="node1" class="node">
<title>DBOptionsPage</title>
<polygon fill="#ffffb3" stroke="#000000" points="576.4874,-122 469.5126,-122 469.5126,-86 576.4874,-86 576.4874,-122"/>
<text text-anchor="middle" x="523" y="-99.8" font-family="Times,serif" font-size="14.00" fill="#000000">DBOptionsPage</text>
</g>
<!-- AppModule -->
<g id="node10" class="node">
<title>AppModule</title>
<polygon fill="#8dd3c7" stroke="#000000" points="782.6571,-187 779.6571,-191 758.6571,-191 755.6571,-187 699.3429,-187 699.3429,-151 782.6571,-151 782.6571,-187"/>
<text text-anchor="middle" x="741" y="-164.8" font-family="Times,serif" font-size="14.00" fill="#000000">AppModule</text>
</g>
<!-- DBOptionsPage&#45;&gt;AppModule -->
<g id="edge1" class="edge">
<title>DBOptionsPage&#45;&gt;AppModule</title>
<path fill="none" stroke="#000000" d="M523,-122.0225C523,-139.3734 523,-163 523,-163 523,-163 689.2253,-163 689.2253,-163"/>
<polygon fill="#000000" stroke="#000000" points="689.2254,-166.5001 699.2253,-163 689.2253,-159.5001 689.2254,-166.5001"/>
</g>
<!-- DetailRecipePage -->
<g id="node2" class="node">
<title>DetailRecipePage</title>
<polygon fill="#ffffb3" stroke="#000000" points="799.2908,-122 682.7092,-122 682.7092,-86 799.2908,-86 799.2908,-122"/>
<text text-anchor="middle" x="741" y="-99.8" font-family="Times,serif" font-size="14.00" fill="#000000">DetailRecipePage</text>
</g>
<!-- DetailRecipePage&#45;&gt;AppModule -->
<g id="edge2" class="edge">
<title>DetailRecipePage&#45;&gt;AppModule</title>
<path fill="none" stroke="#000000" d="M741,-122.1061C741,-122.1061 741,-140.991 741,-140.991"/>
<polygon fill="#000000" stroke="#000000" points="737.5001,-140.9909 741,-150.991 744.5001,-140.991 737.5001,-140.9909"/>
</g>
<!-- DetailRecipePageModule -->
<g id="node14" class="node">
<title>DetailRecipePageModule</title>
<polygon fill="#8dd3c7" stroke="#000000" points="1553.8403,-187 1550.8403,-191 1529.8403,-191 1526.8403,-187 1394.1597,-187 1394.1597,-151 1553.8403,-151 1553.8403,-187"/>
<text text-anchor="middle" x="1474" y="-164.8" font-family="Times,serif" font-size="14.00" fill="#000000">DetailRecipePageModule</text>
</g>
<!-- DetailRecipePage&#45;&gt;DetailRecipePageModule -->
<g id="edge13" class="edge">
<title>DetailRecipePage&#45;&gt;DetailRecipePageModule</title>
<path fill="none" stroke="#000000" d="M790.9867,-122.0908C790.9867,-145.1328 790.9867,-182 790.9867,-182 790.9867,-182 1383.9774,-182 1383.9774,-182"/>
<polygon fill="#000000" stroke="#000000" points="1383.9774,-185.5001 1393.9774,-182 1383.9773,-178.5001 1383.9774,-185.5001"/>
</g>
<!-- EditRecipePage -->
<g id="node3" class="node">
<title>EditRecipePage</title>
<polygon fill="#ffffb3" stroke="#000000" points="922.9174,-122 817.0826,-122 817.0826,-86 922.9174,-86 922.9174,-122"/>
<text text-anchor="middle" x="870" y="-99.8" font-family="Times,serif" font-size="14.00" fill="#000000">EditRecipePage</text>
</g>
<!-- EditRecipePage&#45;&gt;AppModule -->
<g id="edge3" class="edge">
<title>EditRecipePage&#45;&gt;AppModule</title>
<path fill="none" stroke="#000000" d="M887.5694,-122.2396C887.5694,-137.5706 887.5694,-157 887.5694,-157 887.5694,-157 793.0009,-157 793.0009,-157"/>
<polygon fill="#000000" stroke="#000000" points="793.001,-153.5001 783.0009,-157 793.0009,-160.5001 793.001,-153.5001"/>
</g>
<!-- EditRecipePageModule -->
<g id="node15" class="node">
<title>EditRecipePageModule</title>
<polygon fill="#8dd3c7" stroke="#000000" points="1726.4664,-187 1723.4664,-191 1702.4664,-191 1699.4664,-187 1577.5336,-187 1577.5336,-151 1726.4664,-151 1726.4664,-187"/>
<text text-anchor="middle" x="1652" y="-164.8" font-family="Times,serif" font-size="14.00" fill="#000000">EditRecipePageModule</text>
</g>
<!-- EditRecipePage&#45;&gt;EditRecipePageModule -->
<g id="edge14" class="edge">
<title>EditRecipePage&#45;&gt;EditRecipePageModule</title>
<path fill="none" stroke="#000000" d="M852.4306,-122.0555C852.4306,-133.439 852.4306,-146 852.4306,-146 852.4306,-146 1652,-146 1652,-146 1652,-146 1652,-146.4878 1652,-146.4878"/>
<polygon fill="#000000" stroke="#000000" points="1648.5002,-140.8776 1652,-150.8777 1655.5002,-140.8778 1648.5002,-140.8776"/>
</g>
<!-- MyApp -->
<g id="node4" class="node">
<title>MyApp</title>
<polygon fill="#ffffb3" stroke="#000000" points="451.5529,-122 392.4471,-122 392.4471,-86 451.5529,-86 451.5529,-122"/>
<text text-anchor="middle" x="422" y="-99.8" font-family="Times,serif" font-size="14.00" fill="#000000">MyApp</text>
</g>
<!-- MyApp&#45;&gt;AppModule -->
<g id="edge4" class="edge">
<title>MyApp&#45;&gt;AppModule</title>
<path fill="none" stroke="#000000" d="M422,-122.1061C422,-141.3391 422,-169 422,-169 422,-169 689.2963,-169 689.2963,-169"/>
<polygon fill="#000000" stroke="#000000" points="689.2964,-172.5001 699.2963,-169 689.2963,-165.5001 689.2964,-172.5001"/>
</g>
<!-- RecipesPage -->
<g id="node5" class="node">
<title>RecipesPage</title>
<polygon fill="#ffffb3" stroke="#000000" points="1027.5287,-122 940.4713,-122 940.4713,-86 1027.5287,-86 1027.5287,-122"/>
<text text-anchor="middle" x="984" y="-99.8" font-family="Times,serif" font-size="14.00" fill="#000000">RecipesPage</text>
</g>
<!-- RecipesPage&#45;&gt;AppModule -->
<g id="edge5" class="edge">
<title>RecipesPage&#45;&gt;AppModule</title>
<path fill="none" stroke="#000000" d="M998.5879,-122.0336C998.5879,-139.0597 998.5879,-162 998.5879,-162 998.5879,-162 792.6722,-162 792.6722,-162"/>
<polygon fill="#000000" stroke="#000000" points="792.6723,-158.5001 782.6722,-162 792.6722,-165.5001 792.6723,-158.5001"/>
</g>
<!-- RecipesPageModule -->
<g id="node16" class="node">
<title>RecipesPageModule</title>
<polygon fill="#8dd3c7" stroke="#000000" points="1881.5772,-187 1878.5772,-191 1857.5772,-191 1854.5772,-187 1750.4228,-187 1750.4228,-151 1881.5772,-151 1881.5772,-187"/>
<text text-anchor="middle" x="1816" y="-164.8" font-family="Times,serif" font-size="14.00" fill="#000000">RecipesPageModule</text>
</g>
<!-- RecipesPage&#45;&gt;RecipesPageModule -->
<g id="edge15" class="edge">
<title>RecipesPage&#45;&gt;RecipesPageModule</title>
<path fill="none" stroke="#000000" d="M969.4121,-122.4218C969.4121,-131.2791 969.4121,-140 969.4121,-140 969.4121,-140 1816,-140 1816,-140 1816,-140 1816,-141.0799 1816,-141.0799"/>
<polygon fill="#000000" stroke="#000000" points="1812.5001,-140.7985 1816,-150.7985 1819.5001,-140.7986 1812.5001,-140.7985"/>
</g>
<!-- ShoppingListPage -->
<g id="node6" class="node">
<title>ShoppingListPage</title>
<polygon fill="#ffffb3" stroke="#000000" points="1164.1639,-122 1045.8361,-122 1045.8361,-86 1164.1639,-86 1164.1639,-122"/>
<text text-anchor="middle" x="1105" y="-99.8" font-family="Times,serif" font-size="14.00" fill="#000000">ShoppingListPage</text>
</g>
<!-- ShoppingListPage&#45;&gt;AppModule -->
<g id="edge6" class="edge">
<title>ShoppingListPage&#45;&gt;AppModule</title>
<path fill="none" stroke="#000000" d="M1124.7772,-122.2222C1124.7772,-140.8285 1124.7772,-167 1124.7772,-167 1124.7772,-167 792.8015,-167 792.8015,-167"/>
<polygon fill="#000000" stroke="#000000" points="792.8015,-163.5001 782.8015,-167 792.8014,-170.5001 792.8015,-163.5001"/>
</g>
<!-- ShoppingListPageModule -->
<g id="node17" class="node">
<title>ShoppingListPageModule</title>
<polygon fill="#8dd3c7" stroke="#000000" points="2068.2133,-187 2065.2133,-191 2044.2133,-191 2041.2133,-187 1905.7867,-187 1905.7867,-151 2068.2133,-151 2068.2133,-187"/>
<text text-anchor="middle" x="1987" y="-164.8" font-family="Times,serif" font-size="14.00" fill="#000000">ShoppingListPageModule</text>
</g>
<!-- ShoppingListPage&#45;&gt;ShoppingListPageModule -->
<g id="edge16" class="edge">
<title>ShoppingListPage&#45;&gt;ShoppingListPageModule</title>
<path fill="none" stroke="#000000" d="M1085.2228,-122.1432C1085.2228,-128.4611 1085.2228,-134 1085.2228,-134 1085.2228,-134 1987,-134 1987,-134 1987,-134 1987,-140.68 1987,-140.68"/>
<polygon fill="#000000" stroke="#000000" points="1983.5001,-140.6799 1987,-150.68 1990.5001,-140.68 1983.5001,-140.6799"/>
</g>
<!-- SigninPage -->
<g id="node7" class="node">
<title>SigninPage</title>
<polygon fill="#ffffb3" stroke="#000000" points="1261.7759,-122 1182.2241,-122 1182.2241,-86 1261.7759,-86 1261.7759,-122"/>
<text text-anchor="middle" x="1222" y="-99.8" font-family="Times,serif" font-size="14.00" fill="#000000">SigninPage</text>
</g>
<!-- SigninPage&#45;&gt;AppModule -->
<g id="edge7" class="edge">
<title>SigninPage&#45;&gt;AppModule</title>
<path fill="none" stroke="#000000" d="M1235.2959,-122.2228C1235.2959,-142.3652 1235.2959,-172 1235.2959,-172 1235.2959,-172 792.7174,-172 792.7174,-172"/>
<polygon fill="#000000" stroke="#000000" points="792.7174,-168.5001 782.7174,-172 792.7174,-175.5001 792.7174,-168.5001"/>
</g>
<!-- SigninPageModule -->
<g id="node18" class="node">
<title>SigninPageModule</title>
<polygon fill="#8dd3c7" stroke="#000000" points="2215.8258,-187 2212.8258,-191 2191.8258,-191 2188.8258,-187 2092.1742,-187 2092.1742,-151 2215.8258,-151 2215.8258,-187"/>
<text text-anchor="middle" x="2154" y="-164.8" font-family="Times,serif" font-size="14.00" fill="#000000">SigninPageModule</text>
</g>
<!-- SigninPage&#45;&gt;SigninPageModule -->
<g id="edge17" class="edge">
<title>SigninPage&#45;&gt;SigninPageModule</title>
<path fill="none" stroke="#000000" d="M1208.7041,-122.1903C1208.7041,-125.5376 1208.7041,-128 1208.7041,-128 1208.7041,-128 2154,-128 2154,-128 2154,-128 2154,-140.8975 2154,-140.8975"/>
<polygon fill="#000000" stroke="#000000" points="2150.5001,-140.8974 2154,-150.8975 2157.5001,-140.8975 2150.5001,-140.8974"/>
</g>
<!-- SignupPage -->
<g id="node8" class="node">
<title>SignupPage</title>
<polygon fill="#ffffb3" stroke="#000000" points="1362.3851,-122 1279.6149,-122 1279.6149,-86 1362.3851,-86 1362.3851,-122"/>
<text text-anchor="middle" x="1321" y="-99.8" font-family="Times,serif" font-size="14.00" fill="#000000">SignupPage</text>
</g>
<!-- SignupPage&#45;&gt;AppModule -->
<g id="edge8" class="edge">
<title>SignupPage&#45;&gt;AppModule</title>
<path fill="none" stroke="#000000" d="M1321,-122.0449C1321,-143.6623 1321,-177 1321,-177 1321,-177 792.7122,-177 792.7122,-177"/>
<polygon fill="#000000" stroke="#000000" points="792.7122,-173.5001 782.7122,-177 792.7121,-180.5001 792.7122,-173.5001"/>
</g>
<!-- SignupPageModule -->
<g id="node19" class="node">
<title>SignupPageModule</title>
<polygon fill="#8dd3c7" stroke="#000000" points="2366.4356,-187 2363.4356,-191 2342.4356,-191 2339.4356,-187 2239.5644,-187 2239.5644,-151 2366.4356,-151 2366.4356,-187"/>
<text text-anchor="middle" x="2303" y="-164.8" font-family="Times,serif" font-size="14.00" fill="#000000">SignupPageModule</text>
</g>
<!-- SignupPage&#45;&gt;SignupPageModule -->
<g id="edge18" class="edge">
<title>SignupPage&#45;&gt;SignupPageModule</title>
<path fill="none" stroke="#000000" d="M1362.5681,-104C1549.4771,-104 2303,-104 2303,-104 2303,-104 2303,-140.8939 2303,-140.8939"/>
<polygon fill="#000000" stroke="#000000" points="2299.5001,-140.8938 2303,-150.8939 2306.5001,-140.8939 2299.5001,-140.8938"/>
</g>
<!-- TabsPage -->
<g id="node9" class="node">
<title>TabsPage</title>
<polygon fill="#ffffb3" stroke="#000000" points="665.4249,-122 594.5751,-122 594.5751,-86 665.4249,-86 665.4249,-122"/>
<text text-anchor="middle" x="630" y="-99.8" font-family="Times,serif" font-size="14.00" fill="#000000">TabsPage</text>
</g>
<!-- TabsPage&#45;&gt;AppModule -->
<g id="edge9" class="edge">
<title>TabsPage&#45;&gt;AppModule</title>
<path fill="none" stroke="#000000" d="M630,-122.2396C630,-137.5706 630,-157 630,-157 630,-157 689.0357,-157 689.0357,-157"/>
<polygon fill="#000000" stroke="#000000" points="689.0357,-160.5001 699.0357,-157 689.0356,-153.5001 689.0357,-160.5001"/>
</g>
<!-- IonicApp  -->
<g id="node11" class="node">
<title>IonicApp </title>
<polygon fill="#80b1d3" stroke="#000000" points="777.3734,-252 704.6266,-252 704.6266,-216 777.3734,-216 777.3734,-252"/>
<text text-anchor="middle" x="741" y="-229.8" font-family="Times,serif" font-size="14.00" fill="#000000">IonicApp </text>
</g>
<!-- AppModule&#45;&gt;IonicApp  -->
<g id="edge10" class="edge">
<title>AppModule&#45;&gt;IonicApp </title>
<path fill="none" stroke="#000000" stroke-dasharray="1,5" d="M741,-187.1061C741,-187.1061 741,-205.991 741,-205.991"/>
<polygon fill="#000000" stroke="#000000" points="737.5001,-205.9909 741,-215.991 744.5001,-205.991 737.5001,-205.9909"/>
</g>
<!-- RecipesService -->
<g id="node12" class="node">
<title>RecipesService</title>
<ellipse fill="#fdb462" stroke="#000000" cx="297" cy="-104" rx="70.62" ry="18"/>
<text text-anchor="middle" x="297" y="-99.8" font-family="Times,serif" font-size="14.00" fill="#000000">RecipesService</text>
</g>
<!-- RecipesService&#45;&gt;AppModule -->
<g id="edge11" class="edge">
<title>RecipesService&#45;&gt;AppModule</title>
<path fill="none" stroke="#000000" d="M297,-122.2843C297,-143.3211 297,-175 297,-175 297,-175 689.2296,-175 689.2296,-175"/>
<polygon fill="#000000" stroke="#000000" points="689.2296,-178.5001 699.2296,-175 689.2295,-171.5001 689.2296,-178.5001"/>
</g>
<!-- ShoppingListService -->
<g id="node13" class="node">
<title>ShoppingListService</title>
<ellipse fill="#fdb462" stroke="#000000" cx="116" cy="-104" rx="92.0741" ry="18"/>
<text text-anchor="middle" x="116" y="-99.8" font-family="Times,serif" font-size="14.00" fill="#000000">ShoppingListService</text>
</g>
<!-- ShoppingListService&#45;&gt;AppModule -->
<g id="edge12" class="edge">
<title>ShoppingListService&#45;&gt;AppModule</title>
<path fill="none" stroke="#000000" d="M116,-122.2479C116,-145.0179 116,-181 116,-181 116,-181 689.0215,-181 689.0215,-181"/>
<polygon fill="#000000" stroke="#000000" points="689.0215,-184.5001 699.0215,-181 689.0215,-177.5001 689.0215,-184.5001"/>
</g>
</g>
</svg>
