<?xml version="1.0" encoding="UTF-8" standalone="no"?>
<!DOCTYPE svg PUBLIC "-//W3C//DTD SVG 1.1//EN"
 "http://www.w3.org/Graphics/SVG/1.1/DTD/svg11.dtd">
<!-- Generated by graphviz version 2.40.1 (20161225.0304)
 -->
<!-- Title: dependencies Pages: 1 -->
<svg width="1395pt" height="284pt"
 viewBox="0.00 0.00 1395.00 284.00" xmlns="http://www.w3.org/2000/svg" xmlns:xlink="http://www.w3.org/1999/xlink">
<g id="graph0" class="graph" transform="scale(1 1) rotate(0) translate(4 280)">
<title>dependencies</title>
<polygon fill="#ffffff" stroke="transparent" points="-4,4 -4,-280 1391,-280 1391,4 -4,4"/>
<text text-anchor="start" x="672.5091" y="-42.4" font-family="sans-serif" font-weight="bold" font-size="14.00" fill="#000000">Legend</text>
<polygon fill="#ffffb3" stroke="transparent" points="459.5,-10 459.5,-30 479.5,-30 479.5,-10 459.5,-10"/>
<text text-anchor="start" x="483.129" y="-15.4" font-family="sans-serif" font-size="14.00" fill="#000000"> &#160;Declarations</text>
<polygon fill="#8dd3c7" stroke="transparent" points="572.5,-10 572.5,-30 592.5,-30 592.5,-10 572.5,-10"/>
<text text-anchor="start" x="596.2251" y="-15.4" font-family="sans-serif" font-size="14.00" fill="#000000"> &#160;Module</text>
<polygon fill="#80b1d3" stroke="transparent" points="658.5,-10 658.5,-30 678.5,-30 678.5,-10 658.5,-10"/>
<text text-anchor="start" x="682.2812" y="-15.4" font-family="sans-serif" font-size="14.00" fill="#000000"> &#160;Bootstrap</text>
<polygon fill="#fdb462" stroke="transparent" points="755.5,-10 755.5,-30 775.5,-30 775.5,-10 755.5,-10"/>
<text text-anchor="start" x="779.1732" y="-15.4" font-family="sans-serif" font-size="14.00" fill="#000000"> &#160;Providers</text>
<polygon fill="#fb8072" stroke="transparent" points="851.5,-10 851.5,-30 871.5,-30 871.5,-10 851.5,-10"/>
<text text-anchor="start" x="875.2258" y="-15.4" font-family="sans-serif" font-size="14.00" fill="#000000"> &#160;Exports</text>
<g id="clust1" class="cluster">
<title>cluster_AppModule</title>
<polygon fill="none" stroke="#000000" stroke-dasharray="1,5" points="8,-70 8,-268 1379,-268 1379,-70 8,-70"/>
</g>
<g id="clust2" class="cluster">
<title>cluster_AppModule_declarations</title>
<polygon fill="none" stroke="#000000" points="384,-78 384,-130 1371,-130 1371,-78 384,-78"/>
</g>
<g id="clust14" class="cluster">
<title>cluster_AppModule_bootstrap</title>
<polygon fill="none" stroke="#000000" points="694,-208 694,-260 782,-260 782,-208 694,-208"/>
</g>
<g id="clust15" class="cluster">
<title>cluster_AppModule_providers</title>
<polygon fill="none" stroke="#000000" points="16,-78 16,-130 376,-130 376,-78 16,-78"/>
</g>
<!-- DBOptionsPage -->
<g id="node1" class="node">
<title>DBOptionsPage</title>
<polygon fill="#ffffb3" stroke="#000000" points="1363.4874,-122 1256.5126,-122 1256.5126,-86 1363.4874,-86 1363.4874,-122"/>
<text text-anchor="middle" x="1310" y="-99.8" font-family="Times,serif" font-size="14.00" fill="#000000">DBOptionsPage</text>
</g>
<!-- AppModule -->
<g id="node10" class="node">
<title>AppModule</title>
<polygon fill="#8dd3c7" stroke="#000000" points="779.6571,-187 776.6571,-191 755.6571,-191 752.6571,-187 696.3429,-187 696.3429,-151 779.6571,-151 779.6571,-187"/>
<text text-anchor="middle" x="738" y="-164.8" font-family="Times,serif" font-size="14.00" fill="#000000">AppModule</text>
</g>
<!-- DBOptionsPage&#45;&gt;AppModule -->
<g id="edge1" class="edge">
<title>DBOptionsPage&#45;&gt;AppModule</title>
<path fill="none" stroke="#000000" d="M1310,-122.2479C1310,-145.0179 1310,-181 1310,-181 1310,-181 790.0605,-181 790.0605,-181"/>
<polygon fill="#000000" stroke="#000000" points="790.0606,-177.5001 780.0605,-181 790.0605,-184.5001 790.0606,-177.5001"/>
</g>
<!-- DetailRecipePage -->
<g id="node2" class="node">
<title>DetailRecipePage</title>
<polygon fill="#ffffb3" stroke="#000000" points="1238.2908,-122 1121.7092,-122 1121.7092,-86 1238.2908,-86 1238.2908,-122"/>
<text text-anchor="middle" x="1180" y="-99.8" font-family="Times,serif" font-size="14.00" fill="#000000">DetailRecipePage</text>
</g>
<!-- DetailRecipePage&#45;&gt;AppModule -->
<g id="edge2" class="edge">
<title>DetailRecipePage&#45;&gt;AppModule</title>
<path fill="none" stroke="#000000" d="M1180,-122.2843C1180,-143.3211 1180,-175 1180,-175 1180,-175 789.9808,-175 789.9808,-175"/>
<polygon fill="#000000" stroke="#000000" points="789.9808,-171.5001 779.9808,-175 789.9807,-178.5001 789.9808,-171.5001"/>
</g>
<!-- EditRecipePage -->
<g id="node3" class="node">
<title>EditRecipePage</title>
<polygon fill="#ffffb3" stroke="#000000" points="1103.9174,-122 998.0826,-122 998.0826,-86 1103.9174,-86 1103.9174,-122"/>
<text text-anchor="middle" x="1051" y="-99.8" font-family="Times,serif" font-size="14.00" fill="#000000">EditRecipePage</text>
</g>
<!-- EditRecipePage&#45;&gt;AppModule -->
<g id="edge3" class="edge">
<title>EditRecipePage&#45;&gt;AppModule</title>
<path fill="none" stroke="#000000" d="M1051,-122.1061C1051,-141.3391 1051,-169 1051,-169 1051,-169 789.8878,-169 789.8878,-169"/>
<polygon fill="#000000" stroke="#000000" points="789.8878,-165.5001 779.8878,-169 789.8878,-172.5001 789.8878,-165.5001"/>
</g>
<!-- MyApp -->
<g id="node4" class="node">
<title>MyApp</title>
<polygon fill="#ffffb3" stroke="#000000" points="980.5529,-122 921.4471,-122 921.4471,-86 980.5529,-86 980.5529,-122"/>
<text text-anchor="middle" x="951" y="-99.8" font-family="Times,serif" font-size="14.00" fill="#000000">MyApp</text>
</g>
<!-- MyApp&#45;&gt;AppModule -->
<g id="edge4" class="edge">
<title>MyApp&#45;&gt;AppModule</title>
<path fill="none" stroke="#000000" d="M951,-122.0225C951,-139.3734 951,-163 951,-163 951,-163 789.8278,-163 789.8278,-163"/>
<polygon fill="#000000" stroke="#000000" points="789.8278,-159.5001 779.8278,-163 789.8278,-166.5001 789.8278,-159.5001"/>
</g>
<!-- RecipesPage -->
<g id="node5" class="node">
<title>RecipesPage</title>
<polygon fill="#ffffb3" stroke="#000000" points="902.5287,-122 815.4713,-122 815.4713,-86 902.5287,-86 902.5287,-122"/>
<text text-anchor="middle" x="859" y="-99.8" font-family="Times,serif" font-size="14.00" fill="#000000">RecipesPage</text>
</g>
<!-- RecipesPage&#45;&gt;AppModule -->
<g id="edge5" class="edge">
<title>RecipesPage&#45;&gt;AppModule</title>
<path fill="none" stroke="#000000" d="M859,-122.2396C859,-137.5706 859,-157 859,-157 859,-157 789.9803,-157 789.9803,-157"/>
<polygon fill="#000000" stroke="#000000" points="789.9804,-153.5001 779.9803,-157 789.9803,-160.5001 789.9804,-153.5001"/>
</g>
<!-- ShoppingListPage -->
<g id="node6" class="node">
<title>ShoppingListPage</title>
<polygon fill="#ffffb3" stroke="#000000" points="797.1639,-122 678.8361,-122 678.8361,-86 797.1639,-86 797.1639,-122"/>
<text text-anchor="middle" x="738" y="-99.8" font-family="Times,serif" font-size="14.00" fill="#000000">ShoppingListPage</text>
</g>
<!-- ShoppingListPage&#45;&gt;AppModule -->
<g id="edge6" class="edge">
<title>ShoppingListPage&#45;&gt;AppModule</title>
<path fill="none" stroke="#000000" d="M738,-122.1061C738,-122.1061 738,-140.991 738,-140.991"/>
<polygon fill="#000000" stroke="#000000" points="734.5001,-140.9909 738,-150.991 741.5001,-140.991 734.5001,-140.9909"/>
</g>
<!-- SigninPage -->
<g id="node7" class="node">
<title>SigninPage</title>
<polygon fill="#ffffb3" stroke="#000000" points="660.7759,-122 581.2241,-122 581.2241,-86 660.7759,-86 660.7759,-122"/>
<text text-anchor="middle" x="621" y="-99.8" font-family="Times,serif" font-size="14.00" fill="#000000">SigninPage</text>
</g>
<!-- SigninPage&#45;&gt;AppModule -->
<g id="edge7" class="edge">
<title>SigninPage&#45;&gt;AppModule</title>
<path fill="none" stroke="#000000" d="M621,-122.2396C621,-137.5706 621,-157 621,-157 621,-157 686.0908,-157 686.0908,-157"/>
<polygon fill="#000000" stroke="#000000" points="686.0908,-160.5001 696.0908,-157 686.0907,-153.5001 686.0908,-160.5001"/>
</g>
<!-- SignupPage -->
<g id="node8" class="node">
<title>SignupPage</title>
<polygon fill="#ffffb3" stroke="#000000" points="563.3851,-122 480.6149,-122 480.6149,-86 563.3851,-86 563.3851,-122"/>
<text text-anchor="middle" x="522" y="-99.8" font-family="Times,serif" font-size="14.00" fill="#000000">SignupPage</text>
</g>
<!-- SignupPage&#45;&gt;AppModule -->
<g id="edge8" class="edge">
<title>SignupPage&#45;&gt;AppModule</title>
<path fill="none" stroke="#000000" d="M522,-122.0225C522,-139.3734 522,-163 522,-163 522,-163 686.0969,-163 686.0969,-163"/>
<polygon fill="#000000" stroke="#000000" points="686.0969,-166.5001 696.0969,-163 686.0969,-159.5001 686.0969,-166.5001"/>
</g>
<!-- TabsPage -->
<g id="node9" class="node">
<title>TabsPage</title>
<polygon fill="#ffffb3" stroke="#000000" points="462.4249,-122 391.5751,-122 391.5751,-86 462.4249,-86 462.4249,-122"/>
<text text-anchor="middle" x="427" y="-99.8" font-family="Times,serif" font-size="14.00" fill="#000000">TabsPage</text>
</g>
<!-- TabsPage&#45;&gt;AppModule -->
<g id="edge9" class="edge">
<title>TabsPage&#45;&gt;AppModule</title>
<path fill="none" stroke="#000000" d="M427,-122.1061C427,-141.3391 427,-169 427,-169 427,-169 686.0572,-169 686.0572,-169"/>
<polygon fill="#000000" stroke="#000000" points="686.0572,-172.5001 696.0572,-169 686.0571,-165.5001 686.0572,-172.5001"/>
</g>
<!-- IonicApp  -->
<g id="node11" class="node">
<title>IonicApp </title>
<polygon fill="#80b1d3" stroke="#000000" points="774.3734,-252 701.6266,-252 701.6266,-216 774.3734,-216 774.3734,-252"/>
<text text-anchor="middle" x="738" y="-229.8" font-family="Times,serif" font-size="14.00" fill="#000000">IonicApp </text>
</g>
<!-- AppModule&#45;&gt;IonicApp  -->
<g id="edge10" class="edge">
<title>AppModule&#45;&gt;IonicApp </title>
<path fill="none" stroke="#000000" stroke-dasharray="1,5" d="M738,-187.1061C738,-187.1061 738,-205.991 738,-205.991"/>
<polygon fill="#000000" stroke="#000000" points="734.5001,-205.9909 738,-215.991 741.5001,-205.991 734.5001,-205.9909"/>
</g>
<!-- RecipesService -->
<g id="node12" class="node">
<title>RecipesService</title>
<ellipse fill="#fdb462" stroke="#000000" cx="297" cy="-104" rx="70.62" ry="18"/>
<text text-anchor="middle" x="297" y="-99.8" font-family="Times,serif" font-size="14.00" fill="#000000">RecipesService</text>
</g>
<!-- RecipesService&#45;&gt;AppModule -->
<g id="edge11" class="edge">
<title>RecipesService&#45;&gt;AppModule</title>
<path fill="none" stroke="#000000" d="M297,-122.2843C297,-143.3211 297,-175 297,-175 297,-175 686.1142,-175 686.1142,-175"/>
<polygon fill="#000000" stroke="#000000" points="686.1142,-178.5001 696.1142,-175 686.1142,-171.5001 686.1142,-178.5001"/>
</g>
<!-- ShoppingListService -->
<g id="node13" class="node">
<title>ShoppingListService</title>
<ellipse fill="#fdb462" stroke="#000000" cx="116" cy="-104" rx="92.0741" ry="18"/>
<text text-anchor="middle" x="116" y="-99.8" font-family="Times,serif" font-size="14.00" fill="#000000">ShoppingListService</text>
</g>
<!-- ShoppingListService&#45;&gt;AppModule -->
<g id="edge12" class="edge">
<title>ShoppingListService&#45;&gt;AppModule</title>
<path fill="none" stroke="#000000" d="M116,-122.2479C116,-145.0179 116,-181 116,-181 116,-181 686.223,-181 686.223,-181"/>
<polygon fill="#000000" stroke="#000000" points="686.223,-184.5001 696.223,-181 686.223,-177.5001 686.223,-184.5001"/>
</g>
</g>
</svg>
